<?xml version="1.0" encoding="utf-8"?>
<!-- Generator: Adobe Illustrator 27.7.0, SVG Export Plug-In . SVG Version: 6.00 Build 0)  -->
<svg version="1.1" id="Capa_2_00000153682900580557854630000017049407547147234708_"
	 xmlns="http://www.w3.org/2000/svg" xmlns:xlink="http://www.w3.org/1999/xlink" x="0px" y="0px" viewBox="0 0 331.8 244.4"
	 style="enable-background:new 0 0 331.8 244.4;" xml:space="preserve">
<style type="text/css">
	.st0{opacity:0.3;enable-background:new    ;}
	.st1{fill:#4B7228;stroke:#141414;stroke-width:7.34;stroke-linecap:round;stroke-linejoin:round;}
	.st2{fill:#FFFFFF;stroke:#141414;stroke-width:7.34;stroke-linecap:round;stroke-linejoin:round;}
</style>
<g id="Capa_7">
	<g>
		<path class="st0" d="M228.9,135.9c0.2,3.7,0.5,7.5,1,11.3c0.5,3.8,0.9,7.6,1.3,11.3l0.3,7.3h0.6l2.2-7.3c1.3-4.3,2.5-8.6,3.6-12.9
			c1.1-4.3,2.5-8.6,4.2-12.9l16.2-34.9h-13.4c-7.2-23.9-14.4-47.8-21.6-71.7c43,6.7,68.8,8.6,70,4c0.4-1.4-1.6-3.3-1-4
			c1.4-1.4,10.5,6.8,23,14c6.5,3.8,12.3,6.3,16.5,7.9c-3,16.6-6,33.2-8.9,49.8h-15.1L246,244.3h-61.8c-7.7-10.5-13.2-19.6-16.9-26.1
			c-1.2-2.1-10.3-18.2-9-19c0.6-0.4,3.6,3,6,6c2.4-17.5,4.7-35,7.1-52.6h-0.6l-3.6,10.1c-1.9,4.3-3.7,8.6-5.6,13s-3.5,8.8-5,13.3
			l-26.3,55.3H49.5c-0.8-5.7-2.5-13.5-6.2-22.1c-3.8-8.7-8-14.4-6-17c2.1-2.7,8.5,1.3,12,0c7.4-2.6,7.5-30-9-107.3H23.8l-1.5-71.7
			c72.9,17.3,95.1,16,98,9c1.1-2.8-0.6-0.3,1.4-0.9c0,0-2.3-8.3,4-1c3.8,4.5,15,12.7,17.5,14.8c-3,16.6-6,33.2-8.9,49.8h-12.9
			l0.6,32.7c-0.4,7.8-0.7,15.6-0.8,23.2c-0.2,7.6-0.4,15.4-0.6,23.2h0.6l4.2-9.8c2.2-5,4.4-10.1,6.4-15.1c2.1-5,4.4-10.1,7-15.1
			c2.2-26.3,4.4-52.5,6.6-78.8c35,10.7,45.4,10.3,47,7c1.2-2.4,6.4,8.7,7.4,8.1c1.3-0.9-1.2-8.7,7.6-0.1c4.6,4.5,8.6,7.9,11.3,10.1
			L228.9,135.9L228.9,135.9z"/>
		<path class="st1" d="M218.8,113.5c0.2,3.7,0.5,7.5,1,11.3c0.5,3.8,0.9,7.6,1.3,11.3l0.3,7.3h0.6l2.2-7.3c1.3-4.3,2.5-8.6,3.6-12.9
			c1.1-4.3,2.5-8.6,4.2-12.9l16.2-34.9h-13.4c-7.2-23.9-14.4-47.8-21.6-71.7c43,6.7,68.8,8.6,70,4c0.4-1.4-1.6-3.3-1-4
			c1.4-1.4,10.5,6.8,23,14c6.5,3.8,12.3,6.3,16.5,7.9c-3,16.6-6,33.2-8.9,49.8h-15.1l-61.8,146.4h-61.8
			c-7.7-10.5-13.2-19.6-16.9-26.1c-1.2-2.1-10.3-18.2-9-19c0.6-0.4,3.6,3,6,6c2.4-17.5,4.7-35,7.1-52.6h-0.6l-3.6,10.1
			c-1.9,4.3-3.7,8.6-5.6,13s-3.5,8.8-5,13.3l-26.3,55.3H39.4c-0.8-5.7-2.5-13.5-6.2-22.1c-3.8-8.7-8-14.4-6-17c2.1-2.7,8.5,1.3,12,0
			c7.4-2.6,7.5-30-9-107.3c-8.7-8.9-17.3-17.8-26-26.7c2.7-15,5.3-30,8-45c72.9,17.4,95.1,16,98,9c1.1-2.8,0-8.4,2-9
			c2-0.6,4.7,4.7,11,12c3.8,4.5,7.4,7.8,9.8,9.9c-3,16.6-6,33.2-8.9,49.8c-2.3,4.8-4.6,9.6-6.9,14.3c-1.8,6.1-3.6,12.2-5.4,18.4
			c-0.4,7.8-0.7,15.6-0.8,23.2c-0.2,7.6-0.4,15.4-0.6,23.2h0.6l4.2-9.8c2.2-5,4.4-10.1,6.4-15.1s4.4-10.1,7-15.1
			c2.2-26.3,4.4-52.5,6.6-78.8c35,10.7,45.4,10.3,47,7c1.2-2.4-2-6.3-1-7c1.3-0.9,7.1,6.4,16,15c4.6,4.5,8.6,7.9,11.3,10.1
			L218.8,113.5L218.8,113.5z"/>
		<path class="st2" d="M190.4,83.8c0.2,3.4,0.5,6.8,0.9,10.3c0.4,3.5,0.8,6.9,1.1,10.3l0.2,6.6h0.5l2-6.6c1.2-3.9,2.3-7.8,3.3-11.7
			c1-3.9,2.3-7.8,3.8-11.7l14.8-31.8h-12.2l8.1-45.3h71l-8.1,45.3h-13.7l-56.2,133.3h-56.2c-1.9-9.2-3.6-18.4-5.2-27.6
			s-3.3-18.4-5-27.6L138,99.1h-0.5l-3.3,9.2c-1.7,3.9-3.4,7.8-5.1,11.8c-1.7,4-3.2,8-4.6,12.1l-23.9,50.4H27.1L18.7,49.2h-15
			l8.1-45.3h100.5l-8.1,45.3H92.5L93,79c-0.3,7.1-0.6,14.2-0.8,21.1c-0.2,7-0.3,14-0.5,21.1h0.5l3.8-8.9c2-4.6,4-9.2,5.8-13.7
			c1.9-4.6,4-9.2,6.4-13.7L135.5,36H181L190.4,83.8L190.4,83.8z"/>
	</g>
</g>
</svg>
